<svg width="200" height="200" viewBox="0 0 200 200" fill="none" xmlns="http://www.w3.org/2000/svg">
<rect width="200" height="200" fill="#D2DADD"/>
<g clip-path="url(#clip0_122_24)">
<path d="M99.5 99.5C108.517 99.5 117.165 95.8915 123.542 89.4684C129.918 83.0453 133.5 74.3337 133.5 65.25C133.5 56.1663 129.918 47.4547 123.542 41.0316C117.165 34.6085 108.517 31 99.5 31C90.4826 31 81.8346 34.6085 75.4584 41.0316C69.0821 47.4547 65.5 56.1663 65.5 65.25C65.5 74.3337 69.0821 83.0453 75.4584 89.4684C81.8346 95.8915 90.4826 99.5 99.5 99.5ZM87.3609 112.344C61.1969 112.344 40 133.696 40 160.053C40 164.441 43.5328 168 47.8891 168H151.111C155.467 168 159 164.441 159 160.053C159 133.696 137.803 112.344 111.639 112.344H87.3609Z" fill="#AFB9BB"/>
</g>
<defs>
<clipPath id="clip0_122_24">
<rect width="119" height="137" fill="white" transform="translate(40 31)"/>
</clipPath>
</defs>
</svg>
