<svg width="576" height="512" viewBox="0 0 576 512" fill="none" xmlns="http://www.w3.org/2000/svg">
<g clip-path="url(#clip0_240_19)">
<path d="M575.8 255.5C575.8 273.5 560.8 287.6 543.8 287.6H511.8L512.5 447.8C512.5 450.5 512.3 453.2 512 455.9V472.1C512 494.2 494.1 512.1 472 512.1H456C454.9 512.1 453.8 512.1 452.7 512C451.3 512.1 449.9 512.1 448.5 512.1L416 512H392C369.9 512 352 494.1 352 472V448V384C352 366.3 337.7 352 320 352H256C238.3 352 224 366.3 224 384V448V472C224 494.1 206.1 512 184 512H160H128.1C126.6 512 125.1 511.9 123.6 511.8C122.4 511.9 121.2 512 120 512H104C81.9001 512 64.0001 494.1 64.0001 472V360C64.0001 359.1 64.0001 358.1 64.1001 357.2V287.5H32.1001C14.1001 287.5 0.100098 273.5 0.100098 255.4C0.100098 246.4 3.1001 238.4 10.1001 231.4L266.4 8C273.4 1 281.4 0 288.4 0C295.4 0 303.4 2 309.4 7L564.8 231.5C572.8 238.5 576.8 246.5 575.8 255.5Z" fill="white"/>
</g>
<defs>
<clipPath id="clip0_240_19">
<rect width="576" height="512" fill="white"/>
</clipPath>
</defs>
</svg>
