<svg xmlns="http://www.w3.org/2000/svg" version="1.1" xmlns:xlink="http://www.w3.org/1999/xlink" xmlns:svgjs="http://svgjs.dev/svgjs" width="700" height="700"><svg width="700" height="700" viewBox="0 0 700 700" fill="none" xmlns="http://www.w3.org/2000/svg">
<circle cx="350" cy="350" r="350" fill="white"></circle>
<path d="M461.663 435H402.062V149.4H565.663V199H461.663V272.6H558.463V322.2H461.663V435Z" fill="black"></path>
<path d="M221.2 149.4C247.067 149.4 268.4 152.6 285.2 159C302 165.133 314.533 174.6 322.8 187.4C331.067 199.933 335.2 215.8 335.2 235C335.2 248.067 332.667 259.533 327.6 269.4C322.8 279 316.267 287.267 308 294.2C300 300.867 291.333 306.333 282 310.6L366 435H298.8L230.8 325.4H198.4V435H138V149.4H221.2ZM216.8 199H198.4V276.2H218C231.333 276.2 242.133 274.733 250.4 271.8C258.667 268.867 264.667 264.467 268.4 258.6C272.133 252.467 274 245.133 274 236.6C274 227.533 271.867 220.333 267.6 215C263.6 209.4 257.333 205.4 248.8 203C240.533 200.333 229.867 199 216.8 199Z" fill="black"></path>
<path d="M162.29 475.03C169.08 475.03 174.68 475.87 179.09 477.55C183.5 479.16 186.79 481.645 188.96 485.005C191.13 488.295 192.215 492.46 192.215 497.5C192.215 500.93 191.55 503.94 190.22 506.53C188.96 509.05 187.245 511.22 185.075 513.04C182.975 514.79 180.7 516.225 178.25 517.345L200.3 550H182.66L164.81 521.23H156.305V550H140.45V475.03H162.29ZM161.135 488.05H156.305V508.315H161.45C164.95 508.315 167.785 507.93 169.955 507.16C172.125 506.39 173.7 505.235 174.68 503.695C175.66 502.085 176.15 500.16 176.15 497.92C176.15 495.54 175.59 493.65 174.47 492.25C173.42 490.78 171.775 489.73 169.535 489.1C167.365 488.4 164.565 488.05 161.135 488.05ZM232.131 491.62C237.451 491.62 242.001 492.635 245.781 494.665C249.631 496.695 252.606 499.635 254.706 503.485C256.806 507.335 257.856 512.06 257.856 517.66V525.22H220.896C221.036 529.63 222.331 533.095 224.781 535.615C227.301 538.135 230.766 539.395 235.176 539.395C238.886 539.395 242.246 539.045 245.256 538.345C248.266 537.575 251.381 536.42 254.601 534.88V546.955C251.801 548.355 248.826 549.37 245.676 550C242.596 550.7 238.851 551.05 234.441 551.05C228.701 551.05 223.626 550 219.216 547.9C214.806 545.73 211.341 542.475 208.821 538.135C206.301 533.795 205.041 528.335 205.041 521.755C205.041 515.035 206.161 509.47 208.401 505.06C210.711 500.58 213.896 497.22 217.956 494.98C222.016 492.74 226.741 491.62 232.131 491.62ZM232.236 502.75C229.226 502.75 226.706 503.73 224.676 505.69C222.716 507.65 221.561 510.695 221.211 514.825H243.156C243.156 512.515 242.736 510.45 241.896 508.63C241.126 506.81 239.936 505.375 238.326 504.325C236.716 503.275 234.686 502.75 232.236 502.75ZM287.448 550H271.803V475.03H314.748V488.05H287.448V507.37H312.858V520.39H287.448V550ZM380.249 521.23C380.249 525.99 379.584 530.225 378.254 533.935C376.994 537.645 375.139 540.795 372.689 543.385C370.309 545.905 367.404 547.83 363.974 549.16C360.544 550.42 356.659 551.05 352.319 551.05C348.329 551.05 344.619 550.42 341.189 549.16C337.829 547.83 334.924 545.905 332.474 543.385C330.024 540.795 328.099 537.645 326.699 533.935C325.369 530.225 324.704 525.99 324.704 521.23C324.704 514.86 325.824 509.505 328.064 505.165C330.304 500.755 333.524 497.395 337.724 495.085C341.924 492.775 346.894 491.62 352.634 491.62C358.024 491.62 362.784 492.775 366.914 495.085C371.044 497.395 374.299 500.755 376.679 505.165C379.059 509.505 380.249 514.86 380.249 521.23ZM340.664 521.23C340.664 525.01 341.049 528.195 341.819 530.785C342.659 533.305 343.954 535.23 345.704 536.56C347.454 537.82 349.729 538.45 352.529 538.45C355.329 538.45 357.569 537.82 359.249 536.56C360.999 535.23 362.259 533.305 363.029 530.785C363.869 528.195 364.289 525.01 364.289 521.23C364.289 517.45 363.869 514.3 363.029 511.78C362.259 509.26 360.999 507.37 359.249 506.11C357.499 504.85 355.224 504.22 352.424 504.22C348.294 504.22 345.284 505.655 343.394 508.525C341.574 511.325 340.664 515.56 340.664 521.23ZM445.259 521.23C445.259 525.99 444.594 530.225 443.264 533.935C442.004 537.645 440.149 540.795 437.699 543.385C435.319 545.905 432.414 547.83 428.984 549.16C425.554 550.42 421.669 551.05 417.329 551.05C413.339 551.05 409.629 550.42 406.199 549.16C402.839 547.83 399.934 545.905 397.484 543.385C395.034 540.795 393.109 537.645 391.709 533.935C390.379 530.225 389.714 525.99 389.714 521.23C389.714 514.86 390.834 509.505 393.074 505.165C395.314 500.755 398.534 497.395 402.734 495.085C406.934 492.775 411.904 491.62 417.644 491.62C423.034 491.62 427.794 492.775 431.924 495.085C436.054 497.395 439.309 500.755 441.689 505.165C444.069 509.505 445.259 514.86 445.259 521.23ZM405.674 521.23C405.674 525.01 406.059 528.195 406.829 530.785C407.669 533.305 408.964 535.23 410.714 536.56C412.464 537.82 414.739 538.45 417.539 538.45C420.339 538.45 422.579 537.82 424.259 536.56C426.009 535.23 427.269 533.305 428.039 530.785C428.879 528.195 429.299 525.01 429.299 521.23C429.299 517.45 428.879 514.3 428.039 511.78C427.269 509.26 426.009 507.37 424.259 506.11C422.509 504.85 420.234 504.22 417.434 504.22C413.304 504.22 410.294 505.655 408.404 508.525C406.584 511.325 405.674 515.56 405.674 521.23ZM476.354 551.05C469.984 551.05 464.769 548.565 460.709 543.595C456.719 538.555 454.724 531.17 454.724 521.44C454.724 511.64 456.754 504.22 460.814 499.18C464.874 494.14 470.194 491.62 476.774 491.62C479.504 491.62 481.919 492.005 484.019 492.775C486.119 493.475 487.904 494.455 489.374 495.715C490.914 496.975 492.209 498.41 493.259 500.02H493.784C493.574 498.9 493.329 497.29 493.049 495.19C492.769 493.02 492.629 490.815 492.629 488.575V470.2H508.274V550H496.304L493.259 542.545H492.629C491.649 544.085 490.389 545.52 488.849 546.85C487.379 548.11 485.629 549.125 483.599 549.895C481.569 550.665 479.154 551.05 476.354 551.05ZM481.814 538.555C486.154 538.555 489.199 537.295 490.949 534.775C492.699 532.185 493.609 528.335 493.679 523.225V521.545C493.679 515.945 492.804 511.675 491.054 508.735C489.374 505.795 486.224 504.325 481.604 504.325C478.174 504.325 475.479 505.83 473.519 508.84C471.559 511.78 470.579 516.05 470.579 521.65C470.579 527.25 471.559 531.485 473.519 534.355C475.479 537.155 478.244 538.555 481.814 538.555ZM564.639 532.99C564.639 536.84 563.729 540.13 561.909 542.86C560.089 545.52 557.359 547.55 553.719 548.95C550.079 550.35 545.564 551.05 540.174 551.05C536.184 551.05 532.754 550.77 529.884 550.21C527.014 549.72 524.144 548.88 521.274 547.69V534.775C524.354 536.175 527.679 537.33 531.249 538.24C534.819 539.15 537.969 539.605 540.699 539.605C543.779 539.605 545.949 539.15 547.209 538.24C548.539 537.33 549.204 536.14 549.204 534.67C549.204 533.69 548.924 532.815 548.364 532.045C547.874 531.275 546.754 530.4 545.004 529.42C543.254 528.44 540.524 527.18 536.814 525.64C533.244 524.1 530.304 522.595 527.994 521.125C525.684 519.585 523.969 517.765 522.849 515.665C521.729 513.495 521.169 510.8 521.169 507.58C521.169 502.26 523.234 498.27 527.364 495.61C531.494 492.95 536.989 491.62 543.849 491.62C547.419 491.62 550.814 491.97 554.034 492.67C557.254 493.37 560.579 494.525 564.009 496.135L559.284 507.37C557.394 506.53 555.574 505.795 553.824 505.165C552.074 504.535 550.359 504.045 548.679 503.695C547.069 503.345 545.389 503.17 543.639 503.17C541.329 503.17 539.579 503.485 538.389 504.115C537.269 504.745 536.709 505.69 536.709 506.95C536.709 507.86 536.989 508.7 537.549 509.47C538.179 510.17 539.334 510.94 541.014 511.78C542.764 512.62 545.319 513.74 548.679 515.14C551.969 516.47 554.804 517.87 557.184 519.34C559.564 520.74 561.384 522.525 562.644 524.695C563.974 526.795 564.639 529.56 564.639 532.99Z" fill="black"></path>
</svg><style>@media (prefers-color-scheme: light) { :root { filter: none; } }
@media (prefers-color-scheme: dark) { :root { filter: none; } }
</style></svg>